<svg width="74" height="74" viewBox="0 0 74 74" fill="none" xmlns="http://www.w3.org/2000/svg">
<path fill-rule="evenodd" clip-rule="evenodd" d="M35.1118 61.1488C37.6801 64.5344 41.7466 66.721 46.3238 66.721C54.0913 66.721 60.388 60.4243 60.388 52.6569C60.388 50.7549 60.0105 48.9411 59.3262 47.2864C55.8391 55.5475 47.6628 61.3454 38.1324 61.3454C37.1085 61.3454 36.1003 61.2785 35.1118 61.1488Z" fill="#FED200"/>
<path fill-rule="evenodd" clip-rule="evenodd" d="M23.0862 8.01953C15.3187 8.01953 9.02197 14.3163 9.02197 22.0837C9.02197 25.9133 10.5526 29.3854 13.0354 31.9216C14.8172 21.7219 23.3203 13.8326 33.8123 12.9865C31.2325 9.94782 27.3845 8.01953 23.0862 8.01953Z" fill="#FF928F"/>
<path d="M0 36.589C0 16.3815 16.3815 0 36.589 0C56.7966 0 73.1781 16.3815 73.1781 36.589C73.1781 56.7966 56.7966 73.1781 36.589 73.1781C16.3815 73.1781 0 56.7966 0 36.589Z" fill="#FF5B22"/>
<path d="M47.536 22.0033C47.3422 23.9696 47.2452 25.7422 47.2452 27.3208C47.2452 28.7056 47.2868 29.8411 47.3699 30.7274H46.4144C46.1928 28.5948 45.9158 27.0162 45.5835 25.9914C45.2511 24.939 44.6695 24.1774 43.8387 23.7065C43.0078 23.208 41.7338 22.9588 40.0167 22.9588H37.3994C36.4024 22.9588 35.6685 23.0418 35.1976 23.208C34.7545 23.3465 34.4499 23.6511 34.2837 24.122C34.1175 24.5928 34.0344 25.3544 34.0344 26.4069V36.6266H37.0671C38.0364 36.6266 38.7842 36.405 39.3104 35.9619C39.8367 35.491 40.1828 34.951 40.349 34.3417C40.5429 33.7047 40.6952 32.9153 40.806 31.9737L40.9306 31.1428H41.8861C41.803 32.306 41.7615 33.6077 41.7615 35.0479V37.042C41.7615 38.4545 41.8446 40.4209 42.0108 42.9412H41.0553C41.0276 42.7473 40.9445 42.0826 40.806 40.9471C40.6675 39.7839 40.2798 38.9114 39.6428 38.3298C39.0335 37.7482 38.1749 37.4574 37.0671 37.4574H34.0344V47.0124C34.0344 48.0648 34.1452 48.8265 34.3668 49.2973C34.5883 49.7681 34.9761 50.0866 35.53 50.2528C36.0839 50.419 36.984 50.5298 38.2303 50.5851V51.416C36.7901 51.3329 34.7545 51.2914 32.1234 51.2914C29.7416 51.2914 27.9691 51.3329 26.8059 51.416V50.5851C27.8029 50.5298 28.523 50.419 28.9661 50.2528C29.4369 50.0866 29.7554 49.7681 29.9216 49.2973C30.0878 48.8265 30.1709 48.0648 30.1709 47.0124V26.4069C30.1709 25.3544 30.0878 24.5928 29.9216 24.122C29.7554 23.6511 29.4369 23.3326 28.9661 23.1665C28.523 23.0003 27.8029 22.8895 26.8059 22.8341V22.0033C29.52 22.0863 33.5359 22.1279 38.8535 22.1279C42.9247 22.1279 45.8189 22.0863 47.536 22.0033Z" fill="white"/>
</svg>
